<svg width="87" height="63" fill="none"
  xmlns="http://www.w3.org/2000/svg" aria-label="Free Shipping">
  <title>Free Shipping</title>
  <path d="M3 41.5c1-.2 1.6-.6 2.6-1.7 2.2-2.6 7.6-10.9 11-16.3l6.7-.6c.5 0 .6-.2.6-.4s-.3-.5-.9-.8c-.3-.3-.7-.5-3.3-.5H18l3.1-4.8c.3.5.5.8.7.8l1 .2c.6 0 1.4 0 1.8-.6 1-1.8 1.7-4.2 2-6 0-.7-.1-1.4-.6-1.7-.6-.4-1.7-.7-2.6-.7-.5 0-1 .2-1.9 1a83.3 83.3 0 00-9.7 12l-3.4.5c-.3 0-.4.1-.4.3 0 0 .4.8 1 1.4.3.4.5.5 1 .5l-2.8 4.3A83.2 83.2 0 00.7 40.6c-.3.8 0 1.2.6 1.2l1.7-.3zm15.9-5c.4 0 .8-.3 2.4-2.7a44.5 44.5 0 0112.9-13.2l-.4-.3c-.3-.3-.4-.5-.7-.5a5 5 0 00-1.7.7c-1.8.8-3.9 2.2-6.2 4.3l.3-1.5c0-.6-.2-1-.7-1.3-.5-.4-1-.4-1.7-.6-.2-.1-.5-.1-.7.2-.6 1.1-3.2 4.8-4.7 6.8-2 2.6-2.8 4.5-2.8 5.7 0 1.3 1 1.7 2.3 2l1.7.5zm15.4.9c4 0 9.1-3.7 11.9-8.3v-.2c.2-.3.3-.5 0-.8l-.1-.1c-.1-.1-.2 0-.5.3l-.1.1c-2.8 3.8-7.2 6.2-10.2 6.2-.5 0-1 0-1.3-.3-.2-.4-.1-.9 0-1.5 2.8-1 5-2 6.4-2.8 2.7-1.8 3.4-3 3.4-4.1 0-.9-.6-1.8-1.4-2.4-.3-.5-.6-.7-1.2-1.1-.6-.4-1.3-.7-2-.7-2.7 0-6.3 2.3-8.4 5-3 3.9-2.4 6.4-1 8 1.7 2.1 3 2.7 4.5 2.7zm5-9c-1.1.8-2.7 1.6-4.5 2.4 1.4-2.8 4.3-5.7 6.5-6.2.4 1.4-.5 2.7-2 3.8zm9.9 8.6a13 13 0 007.8-3c.6-.6.9-1.2 1.2-2 0-.4 0-.6-.4-.4-3.2 2.2-5.4 2.8-7.4 2.8-.6 0-1.2 0-1.7-.2v-1.5c2.7-.8 5-1.8 6.5-2.7 2.6-1.6 3.4-2.9 3.4-3.8 0-1-.5-1.7-1.4-2.4-1-1.7-2-2-3-2-2.7 0-6.6 2.3-8.9 5.3-1.7 2.3-2.3 4.7-1.7 6.1a6.9 6.9 0 003 3.3c.7.3 1.5.5 2.6.5zm4.8-8.6c-1 .7-2.8 1.6-4.5 2.4 1.3-2.8 4.2-5.3 6.7-6 0 1.2-.5 2.3-2.2 3.6z" fill="#F3BC10"/>
  <path d="M11.5 58.2c-.8 0-1.6-.1-2.3-.4-.8-.3-1.5-.7-2-1.2l.6-.9c.6.5 1.2.9 1.8 1.1.6.2 1.2.4 2 .4s1.4-.2 2-.5c.4-.4.7-.9.7-1.5 0-.3 0-.5-.2-.7-.1-.2-.3-.4-.6-.5a19.2 19.2 0 00-2.3-.7 20 20 0 01-2.7-1 2 2 0 01-.7-.7l-.2-1c0-.6.1-1 .3-1.4l.9-1c.3-.3.8-.5 1.2-.6l1.5-.2c.8 0 1.6.1 2.2.4.7.3 1.2.6 1.6 1l-.7.8c-.3-.4-.8-.7-1.4-.9a5 5 0 00-2.7-.2l-.8.4a1.7 1.7 0 00-.8 1.5c0 .2 0 .5.2.6 0 .2.2.4.4.5l.8.3 1.2.3a26.2 26.2 0 013 1c.4.3.7.6.8.9.2.3.3.6.3 1 0 1-.4 1.8-1 2.4-.8.5-1.8.8-3 .8zm15-.2h-1.3v-5.8c0-1.2-.2-2-.6-2.7a2 2 0 00-1.8-.9 3 3 0 00-1.1.3 4.5 4.5 0 00-2 1.6l-.5 1.1V58h-1.4V43.4h1.4v6.5a4.7 4.7 0 014-2.5c.7 0 1.2.1 1.6.3.4.3.8.6 1 1 .3.3.5.8.6 1.4l.2 1.8V58zm3 0V47.6h1.4V58h-1.4zm0-12.6v-2h1.4v2h-1.4zm9.7 12.8c-1 0-1.7-.2-2.4-.7-.6-.4-1.2-1-1.6-1.7v6.5h-1.4V47.6h1.3v2a5 5 0 011.6-1.6c.7-.4 1.4-.6 2.2-.6a4.9 4.9 0 013.5 1.7c.5.5.9 1 1.1 1.7.3.6.4 1.3.4 2s-.1 1.4-.4 2a5.2 5.2 0 01-2.4 3c-.6.3-1.2.4-2 .4zm-.4-1.2c.5 0 1-.1 1.5-.4.5-.2.9-.5 1.2-.9a4.3 4.3 0 001-2.9 4.3 4.3 0 00-2.4-3.9c-.4-.2-1-.3-1.5-.3-.3 0-.7 0-1 .2a4.3 4.3 0 00-2 1.4l-.4 1v3.2l.6 1 .8.9 1 .5 1.2.2zm12.7 1.2c-.9 0-1.6-.2-2.3-.7-.7-.4-1.2-1-1.6-1.7v6.5h-1.4V47.6h1.2v2a5 5 0 011.7-1.6c.7-.4 1.4-.6 2.2-.6a4.9 4.9 0 013.5 1.7c.5.5.8 1 1 1.7.3.6.4 1.3.4 2s0 1.4-.3 2a5.2 5.2 0 01-2.5 3c-.6.3-1.2.4-1.9.4zm-.4-1.2c.6 0 1.1-.1 1.6-.4.4-.2.8-.5 1.1-.9a4.3 4.3 0 001-2.9 4.3 4.3 0 00-2.3-3.9l-1.5-.3c-.4 0-.7 0-1.1.2a4.3 4.3 0 00-2 1.4c-.2.3-.3.6-.3 1v3.2c.1.4.3.7.6 1l.8.9 1 .5 1.1.2zm7.4 1V47.6H60V58h-1.4zm0-12.6v-2H60v2h-1.4zM71.7 58h-1.4v-5.8a5 5 0 00-.6-2.7c-.3-.6-.9-.9-1.6-.9l-1.2.3a4.2 4.2 0 00-2.6 2.7V58h-1.4V47.6H64v2.3a5 5 0 014.4-2.5c.6 0 1.1.1 1.5.3.4.2.7.5 1 1l.5 1.3.2 1.9V58zm7 .1a4.4 4.4 0 01-3.5-1.6 5.6 5.6 0 01-1.3-3.7c0-.7 0-1.4.3-2a4.9 4.9 0 012.5-3c.6-.3 1.3-.4 2-.4a4 4 0 012.3.7c.7.4 1.2 1 1.7 1.7v-2.2h1.2V58a4.1 4.1 0 01-1.5 3.3c-.5.4-1 .7-1.6.9-.6.2-1.3.3-2 .3-1.2 0-2.2-.3-2.9-.7-.7-.4-1.3-1-1.8-1.7l.9-.7c.4.7 1 1.2 1.6 1.5a5.1 5.1 0 003.7.3 3.2 3.2 0 002-1.7c.2-.4.3-.9.3-1.5v-2c-.4.6-1 1.2-1.7 1.6-.7.3-1.4.5-2.2.5zm.4-1.1c.4 0 .8 0 1.2-.2a4 4 0 001.8-1.4l.5-1v-3.2a4 4 0 00-1.5-1.9l-1-.5-1.1-.2c-.6 0-1.2.1-1.6.4-.5.2-.9.5-1.2 1a4.5 4.5 0 00-1 2.8 4.3 4.3 0 001.2 3c.3.4.7.7 1.2.9l1.5.3z" fill="#EBAE16"/>
</svg>
