<svg width="142" height="78" fill="none"
  xmlns="http://www.w3.org/2000/svg" aria-label="Super Easy Assembly">
  <title>Super Easy Assembly</title>
  <path d="M9 45.2c1-.3 2-1 2.6-1.7 1-1.3 1.2-2.4 1-3.3-.5-1.8-2.4-1.8-2.7-2.7-.2-1 1.6-2.8 3.5-4 .3-.2.2-.6-.8-1.5-.9-.8-1.6-1-2.4-.7a5 5 0 00-1.9 1.2c-1.1 1.2-1.7 2.5-1.4 3.7.4 1.6 2.5 1.9 2.8 3 .2.9-.8 2.6-3.4 4.4-.2.1-.3.3 0 .6.1.2.4.5.8.7.6.4 1.1.5 1.9.3zm13.6-6.4c.6.2 1.2.3 1.7.2 1.5-.4 2.6-2 3-3.1v-.6a2 2 0 000-.5H27c-.5 1-1.2 1.7-2 2.1-.3-1.7.8-5 1-6.3.3-1.2 0-1.6-1.4-1.4l-1.9.3c-.2 0-.3.2-.4.6-1.2 5.6-3 7.8-4.2 8.4.3-1.7 1.2-3.3 2.1-6.5.4-1.2.3-2.4-1-2.5l-2.1.2c-.4.1-.5.3-.6.8l-2 5.1c-.7 1.8-1 3.1-.7 4 .2.7.6 1.2 1.7 1.6.8.3 1.4.4 2 .2 1.2-.3 2.5-2 3.6-4.6 0 1 .4 1.6 1.5 2zm3.8 8.6c1.2-.6 2-1.1 3-4 .8-1.8 1.7-4.9 2.6-7.9.6.9 1.4 1.2 2.4 1a8.7 8.7 0 004.8-4.5c.5-1.1.8-2.2 1-3.2 1.8-1 3.4-2.2 4.1-3.9l.1-.2v-.5h-.2c0-.1-.2-.1-.4.2v.1a8.6 8.6 0 01-3.6 3.2L40 27c-.2-1-.7-1.6-1.3-1.9-.5-.3-1.2-.5-2-.3-.7.2-1.7.7-2.6 1.4-.1-.5-.6-.7-1.3-.8h-1.2c-.3 0-.5.5-2.4 6.3-1.4 4-2.8 9.2-4.3 15.3-.2.8.1 1 .6.8a6 6 0 001-.4zm7-16.6c1-2.7 3.2-4.4 4.5-5 .2.8 0 1.9-.6 3.1-1.7.7-3 1.3-4 1.9zm-.7 2.8c-.3-1.2 1.2-2 3.6-3A11 11 0 0133 34l-.2-.4zm13.8.1c3-.8 6-4.4 7-8l.1-.2c0-.2 0-.4-.2-.5l-.1-.1c-.1 0-.2 0-.3.3v.1c-1.4 3.4-3.8 5.7-6.1 6.3-.4.1-.9.2-1.3.1l-.2-1c1.8-1.2 3.3-2.3 4.2-3.3 1.5-1.6 1.9-2.7 1.7-3.4-.2-.7-.7-1-1.5-1.5-1.1-1-1.8-1-2.6-.8-2 .5-4.3 3-5.4 5.6-.8 2-.7 3.8 0 4.7.7 1 1.8 1.6 2.8 1.8a4 4 0 002-.1zm1.8-7.2c-.5.7-1.6 1.8-2.7 2.6.4-2.2 2-4.6 3.7-5.5.3.8 0 1.6-1 3zm6.7 4.7c.5 0 .6-.3 1.4-2.4 2.1-5.4 4.2-8.8 6.4-11.5.3-.3.4-.6.4-.9-.1-.2-.3-.7-.6-.6l-.8.7a29.4 29.4 0 00-3.8 4.4c0-1.4-.4-1.7-.8-1.8h-1.7c-.4 0-.5.2-.5.4l-2 5.8c-1 2.3-1.3 3.5-1 4.5.1.6.5 1 1.3 1.2.8.3 1.3.4 1.7.2z" fill="#0D6EF0"/>
  <path d="M53.3 73.2l-1.1-.2a2.6 2.6 0 01-1.5-1.4l-.2-1c0-.4.1-.7.3-1l.7-.8c.3-.3.7-.4 1.1-.6l1.4-.1a7.7 7.7 0 012.5.4v-.8c0-.7-.2-1.3-.6-1.7-.5-.4-1-.7-1.8-.7l-1.3.3-1.3.7-.4-.7c1-.7 2-1 3.1-1 1 0 1.9.2 2.5.8.6.6.9 1.4.9 2.4v3.8c0 .3.1.4.4.4v1h-.4a1 1 0 01-.7-.2.8.8 0 01-.2-.5v-.7l-1.5 1.2c-.6.2-1.2.4-1.9.4zm.3-.9c.5 0 1 0 1.5-.3.5-.2.8-.5 1-.8l.3-.3V69.2a6.6 6.6 0 00-2.2-.5c-.8 0-1.4.2-2 .5-.4.3-.6.8-.6 1.3a1.8 1.8 0 00.5 1.3 2.1 2.1 0 001.5.5zm9 .9c-.6 0-1.2-.1-1.8-.4-.6-.2-1.2-.5-1.6-.9l.5-.7c.4.4 1 .6 1.4.8.5.2 1 .3 1.6.3.6 0 1.2-.1 1.6-.4.4-.2.6-.6.6-1.1 0-.3 0-.5-.2-.6 0-.2-.2-.3-.5-.4-.2-.1-.4-.3-.7-.3l-1.1-.3a16.1 16.1 0 01-2.2-.8l-.5-.5a2 2 0 01-.1-.9c0-.4 0-.7.2-1 .2-.4.4-.6.7-.8a3 3 0 011-.5l1.2-.2c.6 0 1.2.1 1.7.3.6.2 1 .5 1.3.9l-.5.6a3 3 0 00-1.2-.7 4 4 0 00-2.1-.2c-.3 0-.5.2-.7.3a1.4 1.4 0 00-.6 1.2l.1.5c0 .2.2.3.4.4l.6.3 1 .2a21 21 0 012.4.8c.3.2.5.4.6.7.2.2.2.5.2.9 0 .7-.3 1.3-.8 1.8-.6.4-1.4.7-2.4.7zm7.9 0c-.7 0-1.3-.1-2-.4L67 72l.5-.7c.4.4 1 .6 1.4.8.5.2 1 .3 1.6.3.6 0 1.2-.1 1.6-.4.4-.2.6-.6.6-1.1 0-.3 0-.5-.2-.6 0-.2-.3-.3-.5-.4-.2-.1-.4-.3-.7-.3l-1.1-.3a16.1 16.1 0 01-2.2-.8l-.5-.5a2 2 0 01-.1-.9c0-.4 0-.7.2-1 .2-.4.4-.6.7-.8a3 3 0 011-.5l1.2-.2c.6 0 1.2.1 1.7.3.6.2 1 .5 1.3.9l-.5.6a3 3 0 00-1.2-.7 4 4 0 00-2.1-.2c-.3 0-.5.2-.7.3a1.4 1.4 0 00-.6 1.2l.1.5c0 .2.2.3.4.4l.6.3 1 .2a21 21 0 012.4.8c.3.2.5.4.6.7.2.2.2.5.2.9 0 .7-.3 1.3-.8 1.8-.6.4-1.4.7-2.4.7zm8.6 0a4.3 4.3 0 01-4.2-4.4 4.4 4.4 0 011.2-3 4 4 0 011.3-1 4 4 0 011.7-.3c.6 0 1.2.1 1.7.4.5.2 1 .5 1.3.9a4.4 4.4 0 011.1 3v.4h-7.1c0 .5.1.9.3 1.3l.7 1 1 .6a3 3 0 002.6-.2l.6-.5c.2-.1.3-.4.4-.6l1 .3c-.2.3-.3.6-.6.8l-.8.7a4 4 0 01-1 .4l-1.2.2zm3-4.8c0-.5 0-.9-.2-1.2a3.1 3.1 0 00-1.7-1.6c-.3-.2-.7-.2-1-.2a3 3 0 00-2.9 1.8l-.2 1.2h6zM97.4 73h-1v-4.7c0-1-.2-1.6-.5-2.1-.4-.5-.8-.7-1.4-.7-.3 0-.6 0-1 .2a3 3 0 00-1.3 1.3l-.5 1v5h-1v-4.7a4 4 0 00-.5-2.1c-.3-.5-.8-.7-1.4-.7-.6 0-1.2.2-1.7.7-.4.4-.8 1-1 1.7V73h-1.1v-8.3h1v1.9c.3-.7.8-1.2 1.3-1.5.6-.4 1.2-.6 1.9-.6a2.3 2.3 0 012.4 2.2c.8-1.5 1.9-2.2 3.3-2.2.4 0 .8.1 1.1.3.4.1.6.4.8.7l.5 1.1.1 1.5V73zm6.4.2a3.7 3.7 0 01-3.1-1.8V73h-1V61.3h1v5.1L102 65c.6-.3 1.2-.5 1.9-.5.5 0 1 .1 1.5.4.5.2.9.6 1.2 1a4.7 4.7 0 01-.1 6 4 4 0 01-1.3 1l-1.5.3zm-.3-1a2.8 2.8 0 002.3-1 3.5 3.5 0 00.8-2.3 3.6 3.6 0 00-.8-2.4c-.3-.3-.6-.6-1-.7a2.5 2.5 0 00-2-.1 3 3 0 00-.9.4l-.6.7a4 4 0 00-.5.8v2.6l.3.8a3.2 3.2 0 002.4 1.2zm6.1-10.9h1.1v9.8c0 .3.1.6.3.7.1.2.4.3.7.3h.4l.5-.2.1 1-.7.1-.8.1c-.5 0-.9-.1-1.1-.4-.3-.3-.5-.7-.5-1.2V61.3zm4.6 14.3h1l.3-.4.4-.8.5-1.4-3.6-8.3h1.1L117 72l2.9-7.3h1l-4.3 10.7c-.1.3-.3.6-.6.8-.3.3-.6.4-1 .4h-.4-.4v-1z" fill="#0547A0"/>
  <path d="M47.4 57c.5 0 .7-.2.7-.7v-2.4c0-.5-.2-.7-.7-.7h-5.5v-1.7h3.9c.5 0 .7-.2.7-.7v-2.2c0-.5-.2-.7-.7-.7h-4v-1.5h5.6c.5 0 .7-.2.7-.7v-2.4c0-.5-.2-.7-.7-.7H38c-.5 0-.7.2-.7.7v13c0 .5.2.7.7.7h9.3zm8.3-10.2c0-.2.2-.3.4-.3h.5c.1 0 .2 0 .3.3l1 3h-3.2l1-3zm-1.2 9.5v-2.8h3.6v2.8c0 .5.2.7.8.7h3c.5 0 .7-.2.7-.7V51c0-.8-.2-1.8-.8-3.2l-1.7-4.5c-.2-.5-.5-.7-1-.7h-5.4c-.5 0-.9.2-1 .7l-1.8 4.5a9.3 9.3 0 00-.7 3.2v5.3c0 .5.2.7.7.7h3c.4 0 .6-.2.6-.7zm17.3.7c2.5 0 4.1-1.2 4.1-3.5v-2.1c0-2.3-1.2-3-3.1-3.3l-3-.4c-.3 0-.5-.3-.5-.7 0-.3.2-.6.5-.6h4.7c.5 0 .7-.2.7-.7v-2.4c0-.5-.2-.7-.7-.7h-5.6c-2.6 0-4.2 1.2-4.2 3.5v2.1c0 2.3 1.2 3 3.1 3.3l3 .5c.4 0 .5.2.5.6 0 .4-.1.6-.5.6h-5.4c-.5 0-.7.2-.7.7v2.4c0 .5.2.7.7.7h6.4zm13.4 0c.5 0 .7-.2.7-.7v-2.6l3-4c.6-.9.8-1.3.8-2.5v-3.9c0-.5-.2-.7-.7-.7h-3c-.5 0-.7.2-.7.7v3.3c0 .3 0 .6-.2.8l-1 1.5c0 .2-.2.3-.4.3h-.2c-.2 0-.3 0-.5-.3l-.9-1.5c-.2-.2-.2-.5-.2-.8v-3.3c0-.5-.2-.7-.7-.7h-3c-.6 0-.8.2-.8.7v3.9c0 1.2.1 1.6.8 2.4l3 4.1v2.6c0 .5.2.7.7.7h3.3z" fill="#0F2459"/>
</svg>
