<svg width="122" height="69" fill="none"
  xmlns="http://www.w3.org/2000/svg" aria-label="10 Year Warranty">
  <title>10 Year Warranty</title>
  <path d="M24.6 61.2c3.4-.9 6.5-5 8.8-11.6 3-2.2 4.5-4.6 5.7-7.6V42c.1-.2.1-.5-.1-.6h-.2s-.2 0-.3.3v.1c-.8 2-2.4 4-4.4 5.8a105 105 0 002-7.5c.3-1-.2-1.4-1.2-1.5h-1.4c-.3 0-.4.3-.8 1.4a20 20 0 01-3.7 6.7l.7-4.1c.3-2.2-.2-3-1.6-3.1h-1.4c-.2.1-.3.3-.3.6 0 .8-.2 2.6-1 5.2-1 3.3-1 4.2-.1 4.7.8.5 1.5.6 2 .5.4-.1 1-.5 1.6-1.2.3-.4 1.1-1.4 2-3-.4 1.5-.8 2.8-1.3 4a23 23 0 00-8.3 6c-1.2 1.8-.8 3.5.2 4.4.8.6 1.9 1 3.1.6zm-1-4.4c1-1.4 2.1-2.5 5.2-4.4-1.8 4.2-3.8 6.4-5.9 6.9-.2-.7 0-1.5.7-2.5zm19.2-9.6c2.9-.8 6-4.4 7-8V39c.1-.2.1-.4-.1-.5l-.2-.1-.2.3-.1.1c-1.3 3.4-3.7 5.7-6 6.3l-1.3.1-.2-1c1.8-1.2 3.2-2.3 4.1-3.3 1.6-1.6 2-2.7 1.8-3.4-.2-.7-.7-1-1.5-1.5-1.1-1-1.8-1-2.6-.9-2 .6-4.4 3-5.4 5.6-.8 2-.7 4 0 4.8.7.9 1.8 1.6 2.8 1.8a4 4 0 001.9-.1zm1.8-7.2c-.5.7-1.6 1.7-2.8 2.6.5-2.3 2-4.6 3.8-5.6.2.9 0 1.7-1 3zm8.5 4c.7-.6 1.6-1.8 2.4-3.4.2 1.7 1 2.6 2.2 2.3 3-.8 5.3-5.4 5.9-7.4v-.2c0-.2 0-.4-.2-.5v-.1c-.2 0-.2 0-.4.3v.1c-1.3 3.2-2.4 4.4-3.6 5 0-1.8.4-3.8 1.2-5.4V34c-.6-.4-1.8-1-2.5-1.1-.3-.1-.6 0-.8 0-.7-.4-1.6-.8-2.3-.8-.7 0-1.2.2-1.8.6-1.8 1.2-3.4 3-4.4 5.2-1.1 2.5-1 4.2 0 5.1.5.5 1 .8 1.7 1 1.3.6 2 .5 2.6 0zm-.9-1.8c-.6-2.2 1.4-6.2 4.4-8.1l-1 3.2c-.8 2.2-2 3.9-3.4 4.9zm13.2-1.4c.3 0 .5-.4 1.2-2.4a33.4 33.4 0 016.8-12.1L73 26l-.5-.2c-.3 0-.6.3-1.2.8a19 19 0 00-3.6 4.3l-.1-1.1c-.1-.4-.3-.7-.7-.8-.5-.2-.8-.1-1.4-.1-.2 0-.4 0-.4.2-.2 1-1.4 4.2-2.1 6-1 2.2-1.2 3.7-1 4.6.3 1 1.1 1 2 1h1.4zm11.8-22.6c-1 3.6-2.5 9.3-4.5 14.7-.1.3.1.4.3.3l1.8-.6c.7-.4 1.4-1.4 2-2.5 1.3-3.2 3-8.3 3.5-9.8.4-1.1.3-2-.5-2.5-1-.6-1.8-.9-2.1-.8-.2 0-.3.3-.5 1.2zM71 38.5c0 .4 0 .7.5.7s1 0 1.8-.2c.2 0 .4-.1.5-.4.4-.6.7-1.4.9-2.1.2-.7-.1-1.2-.7-1.3a7 7 0 00-1.3-.1c-.5 0-.7.1-.8.5l-.9 3z" fill="#F3BC10"/>
  <path d="M53.6 53.6H55L50.5 64h-1.1L47 58.7 45 64h-1.1l-4.5-10.4h1.3l3.8 9 2-4.8-1.8-4.2h1.2L47 57l1.4-3.4h1.1L48 57.8l2 4.8 3.7-9zm5.5 10.6c-.5 0-1 0-1.3-.2l-1.1-.7c-.4-.3-.6-.7-.8-1l-.2-1.3c0-.5 0-1 .3-1.3.2-.4.5-.7.9-1 .4-.3.8-.5 1.4-.6.5-.2 1.1-.3 1.7-.3a9.6 9.6 0 013.1.6v-1a3 3 0 00-.8-2.2c-.5-.5-1.2-.8-2.1-.8-.6 0-1.1.1-1.7.3a8 8 0 00-1.7 1l-.4-1a7 7 0 013.9-1.3c1.3 0 2.3.4 3 1.1a4 4 0 011.2 3v4.7c0 .4.1.6.5.6V64h-.5c-.4 0-.7 0-.9-.2a1 1 0 01-.3-.7v-.8c-.5.6-1 1-1.8 1.4-.7.3-1.5.5-2.4.5zm.4-1c.7 0 1.3-.2 1.9-.4.6-.3 1-.7 1.4-1.1l.2-.4.1-.4v-1.7a8.3 8.3 0 00-2.9-.5c-1 0-1.7.2-2.3.6-.6.4-1 1-1 1.6a2.3 2.3 0 00.8 1.6 2.7 2.7 0 001.8.7zm13.1-8.4c-1 0-1.7.3-2.4.7-.7.5-1.1 1.2-1.4 2V64h-1.4V53.6h1.3V56c.4-.8.9-1.4 1.6-1.9a3.6 3.6 0 012.3-.7v1.3zm7 0c-.9 0-1.7.3-2.4.7-.7.5-1.1 1.2-1.4 2V64h-1.4V53.6h1.3V56c.4-.8 1-1.4 1.6-1.9a3.6 3.6 0 012.3-.7v1.3zm4.3 9.4c-.5 0-1 0-1.4-.2l-1-.7c-.4-.3-.6-.7-.8-1-.2-.5-.2-.9-.2-1.3 0-.5 0-1 .3-1.3.2-.4.5-.7.9-1 .4-.3.8-.5 1.4-.6.5-.2 1-.3 1.7-.3a9.6 9.6 0 013.1.6v-1a3 3 0 00-.8-2.2c-.5-.5-1.2-.8-2.1-.8-.6 0-1.1.1-1.7.3a8 8 0 00-1.7 1l-.5-1a7 7 0 014-1.3c1.3 0 2.3.4 3 1.1a4 4 0 011.2 3v4.7c0 .4.1.6.5.6V64h-.6c-.3 0-.6 0-.8-.2a1 1 0 01-.3-.7v-.8c-.5.6-1.1 1-1.8 1.4-.8.3-1.5.5-2.4.5zm.3-1c.7 0 1.4-.2 2-.4.6-.3 1-.7 1.3-1.1.2-.1.2-.2.3-.4l.1-.4v-1.7a8.3 8.3 0 00-2.9-.5c-1 0-1.7.2-2.3.6-.6.4-1 1-1 1.6a2.3 2.3 0 00.8 1.6 2.7 2.7 0 001.7.7zm16.8.8h-1.4v-5.8a5 5 0 00-.6-2.7c-.3-.6-.9-.9-1.6-.9l-1.2.3a4.2 4.2 0 00-2.6 2.7V64h-1.4V53.6h1.2v2.3a5 5 0 014.4-2.5c.6 0 1.1.1 1.5.3.4.2.7.5 1 1l.5 1.3.2 1.9V64zm7.8-.5a6.2 6.2 0 01-2.4.6l-.8-.1a2 2 0 01-.7-.4 2 2 0 01-.7-1.5v-7.4h-1.4v-1.1h1.4V50h1.4v3.5h2.4v1h-2.4v7.1c0 .4.1.7.4.9.2.2.5.3.8.3l1-.2.6-.3.4 1.1zm2.3 3.7h1.1l.4-.5.5-1 .7-1.7-4.5-10.4h1.4l3.8 9.1 3.6-9.1h1.3L114 67c-.1.4-.4.7-.7 1a2 2 0 01-1.4.5h-.4a3 3 0 01-.4-.1v-1.2z" fill="#D59A0A"/>
  <path d="M15.8 35c.7 0 1-.3 1-1v-3.7c0-.8-.3-1-1-1h-2.9V14.4c0-.8-.3-1.1-1-1.1H3c-.7 0-1 .3-1 1v3.7c0 .8.3 1 1 1H6v10.1H2.5c-.7 0-1 .3-1 1V34c0 .8.3 1.1 1 1.1h13.3zM38 29.3V19.1c0-3.7-1.8-6.2-9.2-6.2-7.3 0-9.1 2.5-9.1 6.2v10.2c0 3.7 1.8 6.2 9.1 6.2 7.4 0 9.2-2.5 9.2-6.2zm-11.6-1v-8.1c0-.8.4-1.4 2.4-1.4 2.1 0 2.4.6 2.4 1.4v8c0 .9-.3 1.5-2.4 1.5-2 0-2.4-.6-2.4-1.4z" fill="#EBAE16"/>
</svg>
