<svg width="99" height="64" fill="none"
  xmlns="http://www.w3.org/2000/svg" aria-label="365 Day Trial">
  <title>365 Day Trial</title>
  <path d="M4.2 37.6c3.8 0 7.6-1.2 10.3-3.3 2.8-2.2 4-5.6 3-9-.4-1.2-1-2.3-2.2-3 4-.7 7.1-2.4 8-4.7 1.3-3.3-.3-6.6-6-6.6-1.8 0-3.5.5-4.9 1.2-.8.4-1.3.8-2 1.6A15 15 0 009 16.3c-.2.4-.2.6.3.4 2.4-1 4.1-1.3 5.7-1.3 2.7 0 3.3 1 3 2.2-.5 1.5-2 2.4-6.6 3.3-1.7.3-2.4.7-3 1.6-.4.9-.8 1.7-.8 2.1 0 .2 0 .3.4.3 3.8.1 6.4.9 7.4 1.8-1 2.6-6 6.2-14.4 6.2-.4 0-.6.7-.2 2 .6 2.1 1.6 2.7 3.4 2.7zm22.8-.4c6.2 0 10.8-6.2 10.8-10.2 0-1.5-.7-2.9-2-4.3a6.8 6.8 0 00-3.8-2.3c2.8-2.8 6.2-5.2 11-7.5 1-.4 1-.8.2-1-1.2-.5-1.6-.9-2.5-.9-.7 0-1.7.2-2.7.6A32.4 32.4 0 0022.2 24c-2.2 3.4-2.5 7.7-.2 10.7.6.7 1.4 1.4 2.2 1.7.8.5 1.7.8 2.8.8zm.7-11.5L29 24c2.2-.8 3.9-.8 5-.2.3 1.2 0 3-1.4 5.1a10.1 10.1 0 01-7.4 4.8c-.6-1.5 0-4.5 2.5-8zm12.5 11.9c6.2 0 14.2-4.8 14.3-11.1 0-.9 0-1.7-.4-2.5-.9-1.8-2.3-3.6-6.7-3.8l2.2-3.4c2.9 0 6-.1 8.1-.3a5.1 5.1 0 004.4-2.8c.4-.6.8-1.4.8-1.8 0-.1 0-.3-.4-.3-2 0-6 .2-9.8.5.6-.9 0-1.1-.4-1.9-.2-.2-.4-.4-.7-.4-.3 0-.4.2-1 1l-1 1.5-2.5.3c-.4 0-.4.1-.4.3l.4 2 .3.5-5 7c-.6.7-.6 1.4-.4 2l.8 1.1c.2.3.4.3 1.2 0 3.3-1.2 6.3-1.3 8-.8-.5 3.8-7.2 7.4-15.5 8.3-.4 0-.5 1.3.2 2.6.9 1.5 2 2 3.5 2z" fill="#0547A0"/>
  <path d="M20.2 60c.5 0 .7-.2.7-.7v-9.8h3c.4 0 .7-.3.7-.8v-2.4c0-.5-.3-.7-.8-.7H13.3c-.5 0-.7.2-.7.7v2.4c0 .5.2.8.7.8h3v9.8c0 .5.1.7.6.7h3.3zM31 49.2h1.5c.7 0 1 .4 1 1v.6c0 .6-.3 1-1 1H31v-2.6zM30.3 60c.5 0 .7-.2.7-.7v-4h2.8c.6 0 .8.3.8 1v3c0 .5.2.7.7.7h3.1c.5 0 .7-.2.7-.7V55c0-1.6-1-2.7-2.4-2.9.8-.3 1.1-1.1 1.1-2.2v-1c0-2-1-3.3-4-3.3h-6.6c-.5 0-.7.2-.7.7v13c0 .5.2.7.7.7h3.1zm11.5 0h8.5c.5 0 .7-.2.7-.7v-2.4c0-.5-.2-.7-.7-.7h-2v-6.7h2c.5 0 .7-.3.7-.8v-2.4c0-.5-.2-.7-.7-.7h-8.5c-.5 0-.8.2-.8.7v2.4c0 .5.3.8.8.8h2v6.7h-2c-.5 0-.8.2-.8.7v2.4c0 .5.3.7.8.7zm16.9-10.2c.1-.2.2-.3.4-.3h.5c.1 0 .3 0 .4.3l.9 3h-3.1l.9-3zm-1.1 9.5v-2.8H61v2.8c0 .5.2.7.8.7h3c.5 0 .7-.2.7-.7V54c0-.8-.2-1.8-.8-3.2l-1.7-4.5c-.2-.5-.5-.7-1-.7h-5.4c-.5 0-.8.2-1 .7L54 50.8a9.3 9.3 0 00-.8 3.2v5.3c0 .5.2.7.7.7h3c.4 0 .7-.2.7-.7zM79 60c.5 0 .7-.2.7-.7V53c0-.5-.2-.7-.7-.7h-3c-.4 0-.6.2-.6.7v3.2h-2.8v-9.9c0-.5-.2-.7-.7-.7h-3c-.6 0-.8.2-.8.7v13c0 .5.2.7.7.7H79z" fill="#0D6EF0"/>
  <path d="M65.8 38.2a4.6 4.6 0 01-3.6-1.6 5.7 5.7 0 01-1-5.9c.2-.6.5-1.2 1-1.7.4-.5.9-.9 1.4-1.2.6-.3 1.3-.4 2-.4a4 4 0 012.3.7c.7.5 1.2 1 1.6 1.7v-6.4h1.4v12.8c0 .4.1.6.4.6V38H71c-.4 0-.6 0-.9-.2a1 1 0 01-.3-.8v-1c-.5.7-1 1.2-1.7 1.6-.7.4-1.5.6-2.2.6zM66 37c.3 0 .7 0 1-.2l1.1-.5.9-.9.4-1v-3.2c-.1-.4-.3-.7-.6-1a4.4 4.4 0 00-1.9-1.4 3.3 3.3 0 00-2.6.2 3.9 3.9 0 00-2 2.3 4.8 4.8 0 00.1 3.1l.8 1.4 1.2.9c.5.2 1 .3 1.6.3zm10.5 1.2c-.5 0-1 0-1.4-.2l-1.1-.7-.7-1L73 35c0-.5.1-1 .3-1.3.2-.4.5-.7 1-1 .3-.3.8-.5 1.3-.6.5-.2 1.1-.3 1.8-.3a9.6 9.6 0 013 .6v-1a3 3 0 00-.7-2.2c-.6-.5-1.3-.8-2.2-.8l-1.6.3a8 8 0 00-1.7 1l-.5-1a7 7 0 013.9-1.3c1.3 0 2.3.4 3 1.1a4 4 0 011.2 3v4.7c0 .4.2.6.5.6V38h-.5c-.4 0-.6 0-.8-.2a1 1 0 01-.3-.7v-.8c-.6.6-1.2 1-1.9 1.4-.7.3-1.5.5-2.3.5zm.3-1c.7 0 1.3-.2 2-.4.5-.3 1-.7 1.3-1.1l.2-.4.1-.4v-1.7a8.3 8.3 0 00-2.9-.5c-1 0-1.7.2-2.3.6-.6.4-.9 1-.9 1.6a2.3 2.3 0 00.7 1.6 2.7 2.7 0 001.8.7zm8.3 4h1.1l.5-.5.4-1L88 38l-4.5-10.4h1.4l3.8 9.1 3.6-9.1h1.3L88.1 41c-.1.4-.4.7-.7 1a2 2 0 01-1.4.5h-.4a3 3 0 01-.4-.1v-1.2z" fill="#0F2459"/>
</svg>
