<svg fill="none"
  xmlns="http://www.w3.org/2000/svg" aria-label="ALLDAY">
  <title>ALLDAY</title>
  <path d="M2.1 0S0 0 0 2.1V48S0 50 2.1 50H48S50 50 50 48V2.1S50 0 48 0H2.1z" fill="#C6232D"/>
  <path d="M19 42.4h-7c-1.2 0-1.7-.5-1.7-1.7V28.3c0-2 .6-4.3 1.9-7.6L16.3 10c.4-1 1.1-1.5 2.4-1.5h12.7c1.3 0 2 .4 2.4 1.5l4 10.7c1.3 3.3 2 5.6 2 7.5v12.5c0 1.1-.6 1.7-1.8 1.7H31c-1.3 0-1.9-.6-1.9-1.7V34h-8.3v6.7c0 1.2-.6 1.7-1.7 1.7zM21 25.5h7.4l-2.2-7.1c-.2-.6-.5-.8-1-.8h-1c-.5 0-.8.2-1 .8l-2.2 7.1z" fill="#fff"/>
  <path d="M57.3 0s-2 0-2 2.1V48s0 2.1 2 2.1h45.8s2.1 0 2.1-2.1V2.1s0-2.1-2-2.1H57.2z" fill="#C6232D"/>
  <path d="M68.8 42.4c-1.2 0-1.7-.5-1.7-1.7V10.1c0-1.2.5-1.7 1.7-1.7H76c1.2 0 1.7.5 1.7 1.7v23.4h6.5v-7.7c0-1.1.5-1.7 1.7-1.7h6.8c1.2 0 1.7.6 1.7 1.7v15c0 1.1-.5 1.6-1.7 1.6h-24z" fill="#fff"/>
  <path d="M112.6 0s-2.2 0-2.2 2.1V48s0 2.1 2.2 2.1h45.7s2.2 0 2.2-2.1V2.1s0-2.1-2.2-2.1h-45.7z" fill="#C6232D"/>
  <path d="M124 42.4c-1.2 0-1.7-.5-1.7-1.7V10.1c0-1.2.5-1.7 1.7-1.7h7.3c1.2 0 1.7.5 1.7 1.7v23.4h6.5v-7.7c0-1.1.5-1.7 1.7-1.7h6.9c1.1 0 1.7.6 1.7 1.7v15c0 1.1-.6 1.6-1.7 1.6H124z" fill="#fff"/>
  <path d="M167.8 0s-2.2 0-2.2 2.1V48s0 2.1 2.2 2.1h45.7s2.2 0 2.2-2.1V2.1s0-2.1-2.2-2.1h-45.7z" fill="#C6232D"/>
  <path d="M178 42.4c-1.2 0-1.8-.5-1.8-1.7V10.1c0-1.2.6-1.7 1.7-1.7h16c8 0 11.6 3.1 11.6 9.7v14.7c0 6.6-3.7 9.7-11.6 9.7h-16zm9-8.9h5.6c1.4 0 2.2-.7 2.2-2.3V19.7c0-1.5-.8-2.3-2.2-2.3h-5.7v16.1z" fill="#fff"/>
  <path d="M222.9 0s-2.1 0-2.1 2.1V48s0 2.1 2 2.1h45.9s2 0 2-2.1V2.1s0-2.1-2-2.1h-45.8z" fill="#C6232D"/>
  <path d="M239.8 42.4h-7c-1.1 0-1.6-.5-1.6-1.7V28.3c0-2 .6-4.3 1.8-7.6l4.1-10.7c.4-1 1.1-1.5 2.5-1.5h12.7c1.2 0 2 .4 2.3 1.5l4.2 10.7c1.2 3.4 1.8 5.7 1.8 7.6v12.4c0 1.2-.5 1.7-1.7 1.7h-7.2c-1.3 0-1.9-.5-1.9-1.7v-6.6h-8.3v6.6c0 1.2-.5 1.7-1.7 1.7zm2.1-16.9h7.4l-2.2-7.1c-.2-.6-.5-.8-.9-.8H245c-.3 0-.6.2-.9.8l-2.2 7.1z" fill="#fff"/>
  <path d="M278.1 0S276 0 276 2.1V48s0 2.1 2.1 2.1h45.8s2.1 0 2.1-2.1V2.1s0-2.1-2.1-2.1H278z" fill="#C6232D"/>
  <path d="M297.2 42.4c-1.2 0-1.7-.5-1.7-1.7v-6l-7.2-9.7c-1.5-1.9-1.8-2.9-1.8-5.8v-9c0-1.3.5-1.8 1.7-1.8h7.3c1.2 0 1.7.5 1.7 1.7V18c0 .6 0 1.3.5 2l2.1 3.3c.3.6.6.9 1.1.9h.4c.6 0 .9-.3 1.2-.9l2.1-3.3c.4-.7.4-1.4.4-2V10c0-1.2.6-1.7 1.7-1.7h7c1.2 0 1.7.5 1.7 1.7v9c0 3-.3 4-1.7 6l-7.1 9.6v6c0 1.1-.5 1.7-1.7 1.7h-7.7z" fill="#fff"/>
</svg>
